<?xml version="1.0" encoding="UTF-8" standalone="no"?>
<svg
   xmlns:dc="http://purl.org/dc/elements/1.1/"
   xmlns:cc="http://creativecommons.org/ns#"
   xmlns:rdf="http://www.w3.org/1999/02/22-rdf-syntax-ns#"
   xmlns:svg="http://www.w3.org/2000/svg"
   xmlns="http://www.w3.org/2000/svg"
   xmlns:xlink="http://www.w3.org/1999/xlink"
   xmlns:sodipodi="http://sodipodi.sourceforge.net/DTD/sodipodi-0.dtd"
   xmlns:inkscape="http://www.inkscape.org/namespaces/inkscape"
   viewBox="0 0 512 512"
   version="1.1"
   id="svg12"
   sodipodi:docname="cat.svg"
   inkscape:version="1.0.2-2 (e86c870879, 2021-01-15)">
  <metadata
     id="metadata18">
    <rdf:RDF>
      <cc:Work
         rdf:about="">
        <dc:format>image/svg+xml</dc:format>
        <dc:type
           rdf:resource="http://purl.org/dc/dcmitype/StillImage" />
        <dc:title></dc:title>
      </cc:Work>
    </rdf:RDF>
  </metadata>
  <defs
     id="defs16">
    <linearGradient
       inkscape:collect="always"
       id="linearGradient922">
      <stop
         style="stop-color:#f36fc1;stop-opacity:1"
         offset="0"
         id="stop918" />
      <stop
         style="stop-color:#64b3f6;stop-opacity:1"
         offset="1"
         id="stop920" />
    </linearGradient>
    <linearGradient
       inkscape:collect="always"
       xlink:href="#linearGradient922"
       id="linearGradient924"
       x1="18.508106"
       y1="17.69302"
       x2="443.74307"
       y2="491.5907"
       gradientUnits="userSpaceOnUse" />
  </defs>
  <sodipodi:namedview
     pagecolor="#ffffff"
     bordercolor="#666666"
     borderopacity="1"
     objecttolerance="10"
     gridtolerance="10"
     guidetolerance="10"
     inkscape:pageopacity="0"
     inkscape:pageshadow="2"
     inkscape:window-width="1920"
     inkscape:window-height="1027"
     id="namedview14"
     showgrid="false"
     inkscape:zoom="1.6796875"
     inkscape:cx="78.958527"
     inkscape:cy="256"
     inkscape:window-x="344"
     inkscape:window-y="1072"
     inkscape:window-maximized="1"
     inkscape:current-layer="svg12" />
  <path
     fill="var(--ci-primary-color, currentColor)"
     d="m 374.762,186.866 v 0 A 54.1,54.1 0 0 0 323.457,150.16 H 280 V 21.552 l -18.263,2.609 c -41.429,5.918 -73.7,26.912 -95.907,62.4 -16.011,25.581 -23.454,53.8 -26.908,74.906 -23.847,18.348 -44.593,43.611 -61.738,75.2 -14.449,26.618 -26.41,57.816 -35.552,92.729 -15.447,58.99 -17.538,107.921 -17.619,109.975 L 24.005,496 H 56 v -55.636 c 0.4,-8.231 10.476,-188.35 107.032,-256.936 l 5.66,-4.021 0.93,-6.881 C 174.437,136.9 191.077,78.058 248,59.971 V 182.16 h 75.457 a 22.12,22.12 0 0 1 21,14.974 v 0 c 12.757,37.656 34.677,84.777 68.839,106.921 l -10.274,38.528 a 62.688,62.688 0 0 1 -62.54,46.87 c -28.668,-0.86 -58.506,2.88 -88.689,11.111 L 240,403.779 V 496 h 32 v -67.532 a 265.353,265.353 0 0 1 67.52,-7.03 94.97,94.97 0 0 0 94.418,-70.61 l 17.088,-64.081 -12.726,-5.454 c -23.8,-10.2 -46.364,-43.735 -63.538,-94.427 z"
     class="ci-primary"
     id="path10"
     style="mix-blend-mode:normal;fill:#ffffff;fill-opacity:1;stroke:#000000;stroke-opacity:1" />
  <path
     fill="var(--ci-primary-color, currentColor)"
     d="m 369.2651,182.13651 v 0 a 54.1,54.1 0 0 0 -51.30499,-36.706 h -43.457 V 16.822515 l -18.263,2.609 c -41.42901,5.918 -73.70001,26.912 -95.90701,62.4 -16.011,25.581005 -23.454,53.799995 -26.908,74.905995 -23.847,18.348 -44.592993,43.611 -61.737993,75.2 -14.449,26.618 -26.41,57.816 -35.552,92.729 -15.447,58.99 -17.538,107.921 -17.619,109.975 l -0.008,56.629 h 31.995 v -55.636 c 0.4,-8.231 10.476,-188.35 107.031993,-256.936 l 5.66,-4.021 0.93,-6.881 c 4.815,-35.626 21.455,-94.467995 78.378,-112.554995 V 177.43051 h 75.45701 a 22.12,22.12 0 0 1 20.99999,14.974 v 0 c 12.757,37.656 34.677,84.777 68.839,106.921 l -10.274,38.528 a 62.688,62.688 0 0 1 -62.54,46.87 c -28.66799,-0.86 -58.50599,2.88 -88.689,11.111 l -11.793,3.215 v 92.221 h 32.00001 v -67.532 a 265.353,265.353 0 0 1 67.51999,-7.03 94.97,94.97 0 0 0 94.418,-70.61 l 17.088,-64.081 -12.726,-5.454 c -23.8,-10.2 -46.364,-43.735 -63.538,-94.427 z"
     class="ci-primary"
     id="path10-6"
     style="mix-blend-mode:normal;fill:url(#linearGradient924);fill-opacity:1" />
</svg>
